<?xml version="1.0" encoding="UTF-8" standalone="no"?>
<!DOCTYPE svg PUBLIC "-//W3C//DTD SVG 1.1//EN" "http://www.w3.org/Graphics/SVG/1.1/DTD/svg11.dtd">
<svg version="1.1"
    xmlns="http://www.w3.org/2000/svg"
    xmlns:xlink="http://www.w3.org/1999/xlink" width="800" height="115">
    <defs>
        <linearGradient id="gradient1" gradientUnits="userSpaceOnUse">
            <stop style="stop-color: #ff75c5;stop-opacity: 1" offset="0%"></stop>
            <stop style="stop-color: #4CC9EE;stop-opacity: 1" offset="100%"></stop>
        </linearGradient>
        <path d="M800 57C800 33.61 800 18.99 800 13.14C800 9.59 797.61 6.5 794.19 5.59C789.94 4.47 790.75 4.69 788.44 4.08C778.3 1.41 767.64 1.49 757.54 4.32C733.97 10.94 760.63 3.46 757.54 4.32C679.16 26.31 598.81 40.57 517.64 46.88C500.29 48.23 456.91 51.6 387.5 57L800 57Z" id="d2VG2VI2Ff"></path>
    </defs>
    <rect x="0" y="0" width="100%" height="50%" fill="url(#gradient1)"/>
    <line stroke-width="2" x1="1" y1="25%" x2="1" y2="65%" stroke="#636363" />
    <line stroke-width="2" x1="50%" y1="25%" x2="50%" y2="65%" stroke="#636363" />
    <line stroke-width="2" x1="799" y1="25%" x2="799" y2="65%" stroke="#636363" />
    <line stroke-width="2" x1="0" y1="50%" x2="100%" y2="50%" stroke="#636363" />
    <text x="0%" y="70%"    style="font-size: 1.45rem;" fill="#636363" dominant-baseline="hanging" text-anchor="left">femininity</text>
    <text x="50%" y="70%"   style="font-size: 1.45rem;" fill="#636363" dominant-baseline="hanging" text-anchor="middle">androgyny</text>
    <text x="100%" y="70%"  style="font-size: 1.45rem;" fill="#636363" dominant-baseline="hanging" text-anchor="end">masculinity</text>
    <g>
        <use xlink:href="#d2VG2VI2Ff" opacity="1" fill="#4e4e4e" fill-opacity="0.5"></use>
        <g>
            <use xlink:href="#d2VG2VI2Ff" opacity="1" fill-opacity="0" stroke="#636363" stroke-width="2" stroke-opacity="1"></use>
        </g>
    </g>
</svg>
