<?xml version="1.0" encoding="UTF-8" standalone="no"?>
<!DOCTYPE svg PUBLIC "-//W3C//DTD SVG 1.1//EN" "http://www.w3.org/Graphics/SVG/1.1/DTD/svg11.dtd">
<svg version="1.1"
    xmlns="http://www.w3.org/2000/svg"
    xmlns:xlink="http://www.w3.org/1999/xlink" width="800" height="115">
    <defs>
        <path d="M0 58L650 58C638.61 43.07 631.49 33.73 628.64 30C619.74 18.33 605.88 11.52 591.21 11.6C582.26 11.65 577.75 11.67 568.56 11.72C554.1 11.8 539.93 15.82 527.58 23.37C517.07 29.79 504.54 37.45 494.06 43.85C481.59 51.47 467.27 55.53 452.66 55.58C438.17 55.64 410.9 55.74 394.88 55.8C385.59 55.84 376.77 51.73 370.84 44.59C368.52 41.8 368.84 42.19 365.99 38.77C361.5 33.37 356.54 28.38 351.18 23.84C346.84 20.17 354.25 26.44 353.01 25.39C337.8 12.52 318.62 5.31 298.71 4.96C249.72 4.11 202.98 5.29 158.5 8.5C130.8 10.5 99.65 14.26 65.06 19.77C65.06 19.77 35.19 25.8 35.19 25.8C30.5 26.95 18.77 29.83 0 34.44L0 58Z" id="b9iKtbUU"></path>
        <linearGradient id="gradient1" gradientUnits="userSpaceOnUse">
            <stop style="stop-color: #ff75c5;stop-opacity: 1" offset="0%"></stop>
            <stop style="stop-color: #4CC9EE;stop-opacity: 1" offset="100%"></stop>
        </linearGradient>
    </defs>
    <rect x="0" y="0" width="100%" height="50%" fill="url(#gradient1)"/>
    <line stroke-width="2" x1="1" y1="25%" x2="1" y2="65%" stroke="#636363" />
    <line stroke-width="2" x1="50%" y1="25%" x2="50%" y2="65%" stroke="#636363" />
    <line stroke-width="2" x1="799" y1="25%" x2="799" y2="65%" stroke="#636363" />
    <line stroke-width="2" x1="0" y1="50%" x2="100%" y2="50%" stroke="#636363" />
    <text x="0%" y="70%"    style="font-size: 1.45rem;" fill="#636363" dominant-baseline="hanging" text-anchor="left">femininity</text>
    <text x="50%" y="70%"   style="font-size: 1.45rem;" fill="#636363" dominant-baseline="hanging" text-anchor="middle">androgyny</text>
    <text x="100%" y="70%"  style="font-size: 1.45rem;" fill="#636363" dominant-baseline="hanging" text-anchor="end">masculinity</text>
    <g>
        <use xlink:href="#b9iKtbUU" opacity="1" fill="#4e4e4e" fill-opacity="0.5"></use>
        <g>
            <use xlink:href="#b9iKtbUU" opacity="1" fill-opacity="0" stroke="#636363" stroke-width="2" stroke-opacity="1"></use>
        </g>
    </g>
</svg>
